<svg xmlns="http://www.w3.org/2000/svg" viewBox="0 0 256 256" role="img" aria-label="Recruitment portal favicon">
  <defs>
    <linearGradient id="panel" x1="0" y1="0" x2="1" y2="1">
      <stop offset="0%" stop-color="#0f4c97"/>
      <stop offset="100%" stop-color="#003366"/>
    </linearGradient>
    <linearGradient id="accent" x1="0" y1="0" x2="0" y2="1">
      <stop offset="0%" stop-color="#f4d774"/>
      <stop offset="100%" stop-color="#d4af37"/>
    </linearGradient>
  </defs>

  <rect width="256" height="256" rx="64" fill="#ffffff"/>
  <rect x="18" y="18" width="220" height="220" rx="54" fill="#ffffff" stroke="#d8e7fb" stroke-width="8"/>
  <rect x="34" y="34" width="188" height="188" rx="46" fill="url(#panel)"/>

  <rect x="76" y="112" width="104" height="56" rx="12" fill="none" stroke="url(#accent)" stroke-width="10"/>
  <path d="M106 112V94c0-8 6.6-14 14.6-14h14.8c8 0 14.6 6 14.6 14v18" fill="none" stroke="url(#accent)" stroke-width="10" stroke-linecap="round"/>

  <circle cx="128" cy="132" r="10" fill="#ffffff"/>
  <path d="M114 156c3.6-6.2 8.4-9.4 14-9.4 5.6 0 10.4 3.2 14 9.4" fill="none" stroke="#ffffff" stroke-width="7" stroke-linecap="round"/>

  <circle cx="186" cy="74" r="29" fill="#0f8f4f" stroke="#d8ffe7" stroke-width="6"/>
  <path d="M172 74l8 8 18-20" fill="none" stroke="#ffffff" stroke-width="8" stroke-linecap="round" stroke-linejoin="round"/>
</svg>
